<svg width="503" height="56" viewBox="0 0 503 56" fill="none" xmlns="http://www.w3.org/2000/svg">
<path d="M0 28C0 12.536 12.536 0 28 0H346.22C361.684 0 374.22 12.536 374.22 28V28C374.22 43.464 361.684 56 346.22 56H28C12.536 56 0 43.464 0 28V28Z" fill="#D9D9D9"/>
<path d="M73.088 22.672C73 22.816 72.908 22.924 72.812 22.996C72.716 23.06 72.596 23.092 72.452 23.092C72.3 23.092 72.128 23.028 71.936 22.9C71.752 22.772 71.52 22.632 71.24 22.48C70.968 22.32 70.644 22.176 70.268 22.048C69.892 21.912 69.444 21.844 68.924 21.844C68.444 21.844 68.02 21.904 67.652 22.024C67.292 22.144 66.988 22.312 66.74 22.528C66.492 22.744 66.304 23 66.176 23.296C66.056 23.584 65.996 23.9 65.996 24.244C65.996 24.684 66.112 25.052 66.344 25.348C66.576 25.636 66.88 25.884 67.256 26.092C67.64 26.3 68.076 26.484 68.564 26.644C69.052 26.796 69.548 26.96 70.052 27.136C70.564 27.312 71.064 27.512 71.552 27.736C72.04 27.96 72.472 28.244 72.848 28.588C73.232 28.932 73.54 29.352 73.772 29.848C74.004 30.344 74.12 30.948 74.12 31.66C74.12 32.428 73.988 33.148 73.724 33.82C73.46 34.492 73.076 35.08 72.572 35.584C72.076 36.08 71.46 36.472 70.724 36.76C69.996 37.048 69.164 37.192 68.228 37.192C67.676 37.192 67.136 37.136 66.608 37.024C66.088 36.92 65.588 36.772 65.108 36.58C64.636 36.38 64.192 36.14 63.776 35.86C63.36 35.58 62.988 35.268 62.66 34.924L63.476 33.58C63.548 33.468 63.64 33.38 63.752 33.316C63.864 33.252 63.988 33.22 64.124 33.22C64.308 33.22 64.512 33.308 64.736 33.484C64.96 33.652 65.228 33.84 65.54 34.048C65.86 34.248 66.244 34.436 66.692 34.612C67.14 34.78 67.676 34.864 68.3 34.864C69.316 34.864 70.1 34.616 70.652 34.12C71.212 33.624 71.492 32.94 71.492 32.068C71.492 31.58 71.376 31.184 71.144 30.88C70.912 30.568 70.604 30.308 70.22 30.1C69.844 29.892 69.412 29.716 68.924 29.572C68.436 29.428 67.94 29.276 67.436 29.116C66.932 28.948 66.436 28.756 65.948 28.54C65.46 28.316 65.024 28.028 64.64 27.676C64.264 27.316 63.96 26.876 63.728 26.356C63.496 25.828 63.38 25.172 63.38 24.388C63.38 23.764 63.5 23.16 63.74 22.576C63.988 21.992 64.344 21.476 64.808 21.028C65.28 20.572 65.86 20.208 66.548 19.936C67.236 19.664 68.02 19.528 68.9 19.528C69.892 19.528 70.8 19.684 71.624 19.996C72.456 20.308 73.172 20.752 73.772 21.328L73.088 22.672ZM83.0495 31.648C82.1295 31.68 81.3535 31.756 80.7215 31.876C80.0895 31.988 79.5775 32.136 79.1855 32.32C78.7935 32.496 78.5095 32.708 78.3335 32.956C78.1655 33.204 78.0815 33.476 78.0815 33.772C78.0815 34.06 78.1255 34.308 78.2135 34.516C78.3095 34.716 78.4375 34.884 78.5975 35.02C78.7655 35.148 78.9575 35.244 79.1735 35.308C79.3975 35.364 79.6415 35.392 79.9055 35.392C80.5775 35.392 81.1535 35.268 81.6335 35.02C82.1215 34.764 82.5935 34.396 83.0495 33.916V31.648ZM76.2095 26.464C77.5935 25.176 79.2415 24.532 81.1535 24.532C81.8575 24.532 82.4815 24.648 83.0255 24.88C83.5775 25.104 84.0375 25.424 84.4055 25.84C84.7815 26.256 85.0655 26.752 85.2575 27.328C85.4575 27.896 85.5575 28.528 85.5575 29.224V37H84.4055C84.1575 37 83.9695 36.964 83.8415 36.892C83.7135 36.812 83.6055 36.656 83.5175 36.424L83.2655 35.428C82.9535 35.708 82.6455 35.96 82.3415 36.184C82.0375 36.4 81.7215 36.584 81.3935 36.736C81.0735 36.888 80.7255 37 80.3495 37.072C79.9815 37.152 79.5735 37.192 79.1255 37.192C78.6295 37.192 78.1655 37.124 77.7335 36.988C77.3095 36.852 76.9415 36.648 76.6295 36.376C76.3175 36.096 76.0695 35.752 75.8855 35.344C75.7095 34.936 75.6215 34.456 75.6215 33.904C75.6215 33.432 75.7455 32.972 75.9935 32.524C76.2495 32.076 76.6655 31.676 77.2415 31.324C77.8255 30.964 78.5895 30.668 79.5335 30.436C80.4855 30.204 81.6575 30.072 83.0495 30.04V29.224C83.0495 28.344 82.8615 27.688 82.4855 27.256C82.1095 26.824 81.5575 26.608 80.8295 26.608C80.3335 26.608 79.9175 26.672 79.5815 26.8C79.2455 26.92 78.9535 27.052 78.7055 27.196C78.4575 27.34 78.2375 27.476 78.0455 27.604C77.8535 27.724 77.6495 27.784 77.4335 27.784C77.2575 27.784 77.1055 27.74 76.9775 27.652C76.8575 27.556 76.7575 27.44 76.6775 27.304L76.2095 26.464ZM82.1855 20.872C82.4415 20.872 82.6415 20.8 82.7855 20.656C82.9295 20.504 83.0055 20.256 83.0135 19.912H84.5855C84.5855 20.328 84.5295 20.708 84.4175 21.052C84.3055 21.388 84.1455 21.68 83.9375 21.928C83.7375 22.168 83.4935 22.356 83.2055 22.492C82.9255 22.62 82.6175 22.684 82.2815 22.684C82.0015 22.684 81.7375 22.632 81.4895 22.528C81.2415 22.416 81.0095 22.296 80.7935 22.168C80.5775 22.04 80.3735 21.924 80.1815 21.82C79.9895 21.708 79.8095 21.652 79.6415 21.652C79.3855 21.652 79.1855 21.732 79.0415 21.892C78.8975 22.044 78.8255 22.292 78.8255 22.636H77.2295C77.2295 22.22 77.2855 21.84 77.3975 21.496C77.5175 21.152 77.6775 20.86 77.8775 20.62C78.0855 20.372 78.3295 20.18 78.6095 20.044C78.8975 19.908 79.2095 19.84 79.5455 19.84C79.8335 19.84 80.1015 19.896 80.3495 20.008C80.5975 20.112 80.8295 20.228 81.0455 20.356C81.2615 20.484 81.4615 20.604 81.6455 20.716C81.8375 20.82 82.0175 20.872 82.1855 20.872ZM93.8718 24.568C94.7758 24.568 95.5918 24.716 96.3198 25.012C97.0558 25.308 97.6798 25.728 98.1918 26.272C98.7118 26.816 99.1118 27.476 99.3918 28.252C99.6718 29.028 99.8118 29.9 99.8118 30.868C99.8118 31.836 99.6718 32.708 99.3918 33.484C99.1118 34.26 98.7118 34.924 98.1918 35.476C97.6798 36.02 97.0558 36.44 96.3198 36.736C95.5918 37.032 94.7758 37.18 93.8718 37.18C92.9598 37.18 92.1358 37.032 91.3998 36.736C90.6718 36.44 90.0478 36.02 89.5278 35.476C89.0078 34.924 88.6078 34.26 88.3278 33.484C88.0478 32.708 87.9078 31.836 87.9078 30.868C87.9078 29.9 88.0478 29.028 88.3278 28.252C88.6078 27.476 89.0078 26.816 89.5278 26.272C90.0478 25.728 90.6718 25.308 91.3998 25.012C92.1358 24.716 92.9598 24.568 93.8718 24.568ZM93.8718 35.164C94.9758 35.164 95.7958 34.796 96.3318 34.06C96.8758 33.316 97.1478 32.256 97.1478 30.88C97.1478 29.504 96.8758 28.444 96.3318 27.7C95.7958 26.948 94.9758 26.572 93.8718 26.572C92.7518 26.572 91.9198 26.948 91.3758 27.7C90.8318 28.444 90.5598 29.504 90.5598 30.88C90.5598 32.256 90.8318 33.316 91.3758 34.06C91.9198 34.796 92.7518 35.164 93.8718 35.164ZM114.332 30.928C114.332 31.896 114.212 32.768 113.972 33.544C113.74 34.312 113.388 34.968 112.916 35.512C112.452 36.048 111.872 36.464 111.176 36.76C110.488 37.048 109.688 37.192 108.776 37.192C108.36 37.192 107.948 37.164 107.54 37.108C107.132 37.06 106.708 36.98 106.268 36.868L106.412 35.188C106.436 35.028 106.496 34.9 106.592 34.804C106.696 34.708 106.844 34.66 107.036 34.66C107.18 34.66 107.364 34.692 107.588 34.756C107.82 34.812 108.12 34.84 108.488 34.84C108.976 34.84 109.408 34.768 109.784 34.624C110.168 34.48 110.488 34.256 110.744 33.952C111.008 33.64 111.204 33.244 111.332 32.764C111.468 32.276 111.536 31.688 111.536 31V19.72H114.332V30.928ZM122.677 24.568C123.581 24.568 124.397 24.716 125.125 25.012C125.861 25.308 126.485 25.728 126.997 26.272C127.517 26.816 127.917 27.476 128.197 28.252C128.477 29.028 128.617 29.9 128.617 30.868C128.617 31.836 128.477 32.708 128.197 33.484C127.917 34.26 127.517 34.924 126.997 35.476C126.485 36.02 125.861 36.44 125.125 36.736C124.397 37.032 123.581 37.18 122.677 37.18C121.765 37.18 120.941 37.032 120.205 36.736C119.477 36.44 118.853 36.02 118.333 35.476C117.813 34.924 117.413 34.26 117.133 33.484C116.853 32.708 116.713 31.836 116.713 30.868C116.713 29.9 116.853 29.028 117.133 28.252C117.413 27.476 117.813 26.816 118.333 26.272C118.853 25.728 119.477 25.308 120.205 25.012C120.941 24.716 121.765 24.568 122.677 24.568ZM122.677 35.164C123.781 35.164 124.601 34.796 125.137 34.06C125.681 33.316 125.953 32.256 125.953 30.88C125.953 29.504 125.681 28.444 125.137 27.7C124.601 26.948 123.781 26.572 122.677 26.572C121.557 26.572 120.725 26.948 120.181 27.7C119.637 28.444 119.365 29.504 119.365 30.88C119.365 32.256 119.637 33.316 120.181 34.06C120.725 34.796 121.557 35.164 122.677 35.164ZM138.403 26.98C138.339 27.092 138.267 27.172 138.187 27.22C138.107 27.268 138.007 27.292 137.887 27.292C137.751 27.292 137.603 27.252 137.443 27.172C137.283 27.084 137.095 26.988 136.879 26.884C136.663 26.78 136.407 26.688 136.111 26.608C135.823 26.52 135.483 26.476 135.091 26.476C134.771 26.476 134.479 26.516 134.215 26.596C133.959 26.668 133.739 26.776 133.555 26.92C133.379 27.056 133.243 27.22 133.147 27.412C133.051 27.596 133.003 27.796 133.003 28.012C133.003 28.3 133.091 28.54 133.267 28.732C133.443 28.924 133.675 29.092 133.963 29.236C134.251 29.372 134.579 29.496 134.947 29.608C135.315 29.72 135.691 29.84 136.075 29.968C136.459 30.096 136.835 30.244 137.203 30.412C137.571 30.58 137.899 30.788 138.187 31.036C138.475 31.276 138.707 31.572 138.883 31.924C139.059 32.268 139.147 32.688 139.147 33.184C139.147 33.76 139.043 34.292 138.835 34.78C138.627 35.268 138.323 35.692 137.923 36.052C137.523 36.412 137.023 36.692 136.423 36.892C135.831 37.092 135.151 37.192 134.383 37.192C133.959 37.192 133.547 37.152 133.147 37.072C132.755 37 132.379 36.9 132.019 36.772C131.667 36.636 131.335 36.476 131.023 36.292C130.719 36.108 130.447 35.908 130.207 35.692L130.807 34.708C130.879 34.588 130.967 34.496 131.071 34.432C131.183 34.36 131.319 34.324 131.479 34.324C131.647 34.324 131.811 34.38 131.971 34.492C132.139 34.596 132.331 34.712 132.547 34.84C132.771 34.968 133.039 35.088 133.351 35.2C133.663 35.304 134.051 35.356 134.515 35.356C134.899 35.356 135.231 35.312 135.511 35.224C135.791 35.128 136.023 35 136.207 34.84C136.391 34.68 136.527 34.5 136.615 34.3C136.703 34.092 136.747 33.872 136.747 33.64C136.747 33.328 136.659 33.072 136.483 32.872C136.307 32.672 136.071 32.5 135.775 32.356C135.487 32.212 135.155 32.084 134.779 31.972C134.411 31.86 134.035 31.74 133.651 31.612C133.267 31.484 132.887 31.336 132.511 31.168C132.143 31 131.811 30.788 131.515 30.532C131.227 30.268 130.995 29.952 130.819 29.584C130.643 29.208 130.555 28.752 130.555 28.216C130.555 27.728 130.651 27.264 130.843 26.824C131.043 26.384 131.331 25.996 131.707 25.66C132.091 25.324 132.559 25.06 133.111 24.868C133.671 24.668 134.315 24.568 135.043 24.568C135.867 24.568 136.615 24.7 137.287 24.964C137.959 25.228 138.523 25.588 138.979 26.044L138.403 26.98ZM149.6 29.5C149.6 29.068 149.536 28.668 149.408 28.3C149.288 27.924 149.108 27.6 148.868 27.328C148.628 27.048 148.328 26.832 147.968 26.68C147.616 26.52 147.208 26.44 146.744 26.44C145.808 26.44 145.072 26.708 144.536 27.244C144 27.78 143.66 28.532 143.516 29.5H149.6ZM143.444 31.084C143.476 31.78 143.584 32.384 143.768 32.896C143.952 33.4 144.196 33.82 144.5 34.156C144.812 34.492 145.18 34.744 145.604 34.912C146.036 35.072 146.516 35.152 147.044 35.152C147.548 35.152 147.984 35.096 148.352 34.984C148.72 34.864 149.04 34.736 149.312 34.6C149.584 34.456 149.816 34.328 150.008 34.216C150.2 34.096 150.376 34.036 150.536 34.036C150.744 34.036 150.904 34.116 151.016 34.276L151.748 35.224C151.444 35.584 151.1 35.888 150.716 36.136C150.332 36.384 149.924 36.588 149.492 36.748C149.06 36.9 148.616 37.008 148.16 37.072C147.704 37.144 147.26 37.18 146.828 37.18C145.98 37.18 145.192 37.04 144.464 36.76C143.744 36.472 143.116 36.052 142.58 35.5C142.052 34.948 141.636 34.264 141.332 33.448C141.036 32.632 140.888 31.692 140.888 30.628C140.888 29.78 141.02 28.988 141.284 28.252C141.556 27.516 141.94 26.876 142.436 26.332C142.94 25.788 143.548 25.36 144.26 25.048C144.98 24.728 145.792 24.568 146.696 24.568C147.448 24.568 148.144 24.692 148.784 24.94C149.424 25.18 149.976 25.536 150.44 26.008C150.904 26.48 151.264 27.06 151.52 27.748C151.784 28.428 151.916 29.204 151.916 30.076C151.916 30.476 151.872 30.744 151.784 30.88C151.696 31.016 151.536 31.084 151.304 31.084H143.444ZM150.596 19.528L147.704 22.636C147.576 22.78 147.448 22.88 147.32 22.936C147.2 22.992 147.04 23.02 146.84 23.02H145.304L147.044 20.116C147.156 19.916 147.284 19.768 147.428 19.672C147.58 19.576 147.8 19.528 148.088 19.528H150.596ZM168.111 27.772C167.751 27.308 167.355 26.984 166.923 26.8C166.491 26.616 166.023 26.524 165.519 26.524C164.511 26.524 163.723 26.896 163.155 27.64C162.587 28.376 162.303 29.468 162.303 30.916C162.303 31.668 162.367 32.312 162.495 32.848C162.623 33.376 162.807 33.808 163.047 34.144C163.287 34.48 163.579 34.724 163.923 34.876C164.267 35.028 164.655 35.104 165.087 35.104C165.743 35.104 166.307 34.964 166.779 34.684C167.259 34.396 167.703 33.992 168.111 33.472V27.772ZM170.691 19.24V37H169.131C168.787 37 168.567 36.836 168.471 36.508L168.243 35.176C167.731 35.776 167.147 36.26 166.491 36.628C165.843 36.996 165.087 37.18 164.223 37.18C163.535 37.18 162.911 37.044 162.351 36.772C161.791 36.492 161.311 36.088 160.911 35.56C160.511 35.032 160.199 34.38 159.975 33.604C159.759 32.82 159.651 31.924 159.651 30.916C159.651 30.004 159.771 29.16 160.011 28.384C160.259 27.608 160.611 26.936 161.067 26.368C161.523 25.792 162.075 25.344 162.723 25.024C163.379 24.696 164.111 24.532 164.919 24.532C165.639 24.532 166.251 24.648 166.755 24.88C167.259 25.104 167.711 25.42 168.111 25.828V19.24H170.691ZM179.137 24.568C180.041 24.568 180.857 24.716 181.585 25.012C182.321 25.308 182.945 25.728 183.457 26.272C183.977 26.816 184.377 27.476 184.657 28.252C184.937 29.028 185.077 29.9 185.077 30.868C185.077 31.836 184.937 32.708 184.657 33.484C184.377 34.26 183.977 34.924 183.457 35.476C182.945 36.02 182.321 36.44 181.585 36.736C180.857 37.032 180.041 37.18 179.137 37.18C178.225 37.18 177.401 37.032 176.665 36.736C175.937 36.44 175.313 36.02 174.793 35.476C174.273 34.924 173.873 34.26 173.593 33.484C173.313 32.708 173.173 31.836 173.173 30.868C173.173 29.9 173.313 29.028 173.593 28.252C173.873 27.476 174.273 26.816 174.793 26.272C175.313 25.728 175.937 25.308 176.665 25.012C177.401 24.716 178.225 24.568 179.137 24.568ZM179.137 35.164C180.241 35.164 181.061 34.796 181.597 34.06C182.141 33.316 182.413 32.256 182.413 30.88C182.413 29.504 182.141 28.444 181.597 27.7C181.061 26.948 180.241 26.572 179.137 26.572C178.017 26.572 177.185 26.948 176.641 27.7C176.097 28.444 175.825 29.504 175.825 30.88C175.825 32.256 176.097 33.316 176.641 34.06C177.185 34.796 178.017 35.164 179.137 35.164ZM194.864 26.98C194.8 27.092 194.728 27.172 194.648 27.22C194.568 27.268 194.468 27.292 194.348 27.292C194.212 27.292 194.064 27.252 193.904 27.172C193.744 27.084 193.556 26.988 193.34 26.884C193.124 26.78 192.868 26.688 192.572 26.608C192.284 26.52 191.944 26.476 191.552 26.476C191.232 26.476 190.94 26.516 190.676 26.596C190.42 26.668 190.2 26.776 190.016 26.92C189.84 27.056 189.704 27.22 189.608 27.412C189.512 27.596 189.464 27.796 189.464 28.012C189.464 28.3 189.552 28.54 189.728 28.732C189.904 28.924 190.136 29.092 190.424 29.236C190.712 29.372 191.04 29.496 191.408 29.608C191.776 29.72 192.152 29.84 192.536 29.968C192.92 30.096 193.296 30.244 193.664 30.412C194.032 30.58 194.36 30.788 194.648 31.036C194.936 31.276 195.168 31.572 195.344 31.924C195.52 32.268 195.608 32.688 195.608 33.184C195.608 33.76 195.504 34.292 195.296 34.78C195.088 35.268 194.784 35.692 194.384 36.052C193.984 36.412 193.484 36.692 192.884 36.892C192.292 37.092 191.612 37.192 190.844 37.192C190.42 37.192 190.008 37.152 189.608 37.072C189.216 37 188.84 36.9 188.48 36.772C188.128 36.636 187.796 36.476 187.484 36.292C187.18 36.108 186.908 35.908 186.668 35.692L187.268 34.708C187.34 34.588 187.428 34.496 187.532 34.432C187.644 34.36 187.78 34.324 187.94 34.324C188.108 34.324 188.272 34.38 188.432 34.492C188.6 34.596 188.792 34.712 189.008 34.84C189.232 34.968 189.5 35.088 189.812 35.2C190.124 35.304 190.512 35.356 190.976 35.356C191.36 35.356 191.692 35.312 191.972 35.224C192.252 35.128 192.484 35 192.668 34.84C192.852 34.68 192.988 34.5 193.076 34.3C193.164 34.092 193.208 33.872 193.208 33.64C193.208 33.328 193.12 33.072 192.944 32.872C192.768 32.672 192.532 32.5 192.236 32.356C191.948 32.212 191.616 32.084 191.24 31.972C190.872 31.86 190.496 31.74 190.112 31.612C189.728 31.484 189.348 31.336 188.972 31.168C188.604 31 188.272 30.788 187.976 30.532C187.688 30.268 187.456 29.952 187.28 29.584C187.104 29.208 187.016 28.752 187.016 28.216C187.016 27.728 187.112 27.264 187.304 26.824C187.504 26.384 187.792 25.996 188.168 25.66C188.552 25.324 189.02 25.06 189.572 24.868C190.132 24.668 190.776 24.568 191.504 24.568C192.328 24.568 193.076 24.7 193.748 24.964C194.42 25.228 194.984 25.588 195.44 26.044L194.864 26.98ZM216.49 33.148C216.642 33.148 216.774 33.208 216.886 33.328L218.002 34.54C217.298 35.388 216.434 36.044 215.41 36.508C214.386 36.964 213.162 37.192 211.738 37.192C210.474 37.192 209.33 36.976 208.306 36.544C207.29 36.104 206.422 35.496 205.702 34.72C204.982 33.936 204.426 33.004 204.034 31.924C203.65 30.844 203.458 29.656 203.458 28.36C203.458 27.064 203.662 25.876 204.07 24.796C204.486 23.708 205.066 22.776 205.81 22C206.562 21.216 207.458 20.608 208.497 20.176C209.546 19.744 210.698 19.528 211.954 19.528C213.202 19.528 214.302 19.732 215.254 20.14C216.214 20.54 217.046 21.076 217.75 21.748L216.826 23.056C216.762 23.144 216.686 23.22 216.598 23.284C216.51 23.348 216.39 23.38 216.238 23.38C216.078 23.38 215.894 23.308 215.686 23.164C215.486 23.012 215.226 22.848 214.906 22.672C214.594 22.488 214.198 22.324 213.718 22.18C213.246 22.028 212.654 21.952 211.942 21.952C211.118 21.952 210.362 22.096 209.674 22.384C208.986 22.672 208.394 23.092 207.898 23.644C207.402 24.196 207.014 24.868 206.734 25.66C206.462 26.452 206.326 27.352 206.326 28.36C206.326 29.376 206.47 30.284 206.758 31.084C207.046 31.876 207.442 32.548 207.946 33.1C208.45 33.644 209.042 34.06 209.722 34.348C210.402 34.636 211.134 34.78 211.918 34.78C212.398 34.78 212.826 34.756 213.202 34.708C213.586 34.652 213.938 34.568 214.258 34.456C214.578 34.336 214.878 34.188 215.158 34.012C215.446 33.836 215.73 33.62 216.01 33.364C216.17 33.22 216.33 33.148 216.49 33.148ZM226.487 31.648C225.567 31.68 224.791 31.756 224.159 31.876C223.527 31.988 223.015 32.136 222.623 32.32C222.231 32.496 221.947 32.708 221.771 32.956C221.603 33.204 221.519 33.476 221.519 33.772C221.519 34.06 221.563 34.308 221.651 34.516C221.747 34.716 221.875 34.884 222.035 35.02C222.203 35.148 222.395 35.244 222.611 35.308C222.835 35.364 223.079 35.392 223.343 35.392C224.015 35.392 224.591 35.268 225.071 35.02C225.559 34.764 226.031 34.396 226.487 33.916V31.648ZM219.647 26.464C221.031 25.176 222.679 24.532 224.591 24.532C225.295 24.532 225.919 24.648 226.463 24.88C227.015 25.104 227.475 25.424 227.843 25.84C228.219 26.256 228.503 26.752 228.695 27.328C228.895 27.896 228.995 28.528 228.995 29.224V37H227.843C227.595 37 227.407 36.964 227.279 36.892C227.151 36.812 227.043 36.656 226.955 36.424L226.703 35.428C226.391 35.708 226.083 35.96 225.779 36.184C225.475 36.4 225.159 36.584 224.831 36.736C224.511 36.888 224.163 37 223.787 37.072C223.419 37.152 223.011 37.192 222.563 37.192C222.067 37.192 221.603 37.124 221.171 36.988C220.747 36.852 220.379 36.648 220.067 36.376C219.755 36.096 219.507 35.752 219.323 35.344C219.147 34.936 219.059 34.456 219.059 33.904C219.059 33.432 219.183 32.972 219.431 32.524C219.687 32.076 220.103 31.676 220.679 31.324C221.263 30.964 222.027 30.668 222.971 30.436C223.923 30.204 225.095 30.072 226.487 30.04V29.224C226.487 28.344 226.299 27.688 225.923 27.256C225.547 26.824 224.995 26.608 224.267 26.608C223.771 26.608 223.355 26.672 223.019 26.8C222.683 26.92 222.391 27.052 222.143 27.196C221.895 27.34 221.675 27.476 221.483 27.604C221.291 27.724 221.087 27.784 220.871 27.784C220.695 27.784 220.543 27.74 220.415 27.652C220.295 27.556 220.195 27.44 220.115 27.304L219.647 26.464ZM232.017 37V24.76H233.577C233.929 24.76 234.153 24.924 234.249 25.252L234.417 26.32C234.641 26.064 234.873 25.832 235.113 25.624C235.353 25.408 235.609 25.224 235.881 25.072C236.161 24.912 236.457 24.788 236.769 24.7C237.089 24.612 237.433 24.568 237.801 24.568C238.193 24.568 238.553 24.624 238.881 24.736C239.209 24.848 239.497 25.008 239.745 25.216C240.001 25.424 240.221 25.676 240.405 25.972C240.589 26.268 240.741 26.6 240.861 26.968C241.045 26.544 241.277 26.18 241.557 25.876C241.837 25.572 242.149 25.324 242.493 25.132C242.837 24.94 243.201 24.8 243.585 24.712C243.977 24.616 244.373 24.568 244.773 24.568C245.429 24.568 246.013 24.672 246.525 24.88C247.045 25.088 247.481 25.392 247.833 25.792C248.193 26.184 248.465 26.668 248.649 27.244C248.833 27.82 248.925 28.476 248.925 29.212V37H246.345V29.212C246.345 28.348 246.157 27.7 245.781 27.268C245.413 26.828 244.865 26.608 244.137 26.608C243.809 26.608 243.501 26.664 243.213 26.776C242.925 26.888 242.673 27.052 242.457 27.268C242.241 27.484 242.069 27.756 241.941 28.084C241.821 28.404 241.761 28.78 241.761 29.212V37H239.181V29.212C239.181 28.316 239.001 27.66 238.641 27.244C238.281 26.82 237.753 26.608 237.057 26.608C236.577 26.608 236.133 26.732 235.725 26.98C235.317 27.22 234.941 27.552 234.597 27.976V37H232.017ZM254.519 33.928C254.879 34.392 255.271 34.72 255.695 34.912C256.127 35.096 256.603 35.188 257.123 35.188C258.131 35.188 258.915 34.82 259.475 34.084C260.043 33.348 260.327 32.252 260.327 30.796C260.327 30.044 260.263 29.404 260.135 28.876C260.007 28.34 259.823 27.904 259.583 27.568C259.343 27.232 259.051 26.988 258.707 26.836C258.363 26.684 257.975 26.608 257.543 26.608C256.887 26.608 256.319 26.752 255.839 27.04C255.367 27.32 254.927 27.724 254.519 28.252V33.928ZM254.387 26.536C254.899 25.936 255.479 25.452 256.127 25.084C256.783 24.716 257.543 24.532 258.407 24.532C259.095 24.532 259.719 24.672 260.279 24.952C260.839 25.224 261.319 25.624 261.719 26.152C262.119 26.68 262.427 27.336 262.643 28.12C262.867 28.896 262.979 29.788 262.979 30.796C262.979 31.7 262.855 32.544 262.607 33.328C262.367 34.104 262.019 34.78 261.563 35.356C261.107 35.924 260.555 36.372 259.907 36.7C259.259 37.02 258.527 37.18 257.711 37.18C256.991 37.18 256.379 37.064 255.875 36.832C255.379 36.6 254.927 36.28 254.519 35.872V41.068H251.939V24.76H253.499C253.851 24.76 254.075 24.924 254.171 25.252L254.387 26.536ZM270.778 24.568C271.682 24.568 272.498 24.716 273.226 25.012C273.962 25.308 274.586 25.728 275.098 26.272C275.618 26.816 276.018 27.476 276.298 28.252C276.578 29.028 276.718 29.9 276.718 30.868C276.718 31.836 276.578 32.708 276.298 33.484C276.018 34.26 275.618 34.924 275.098 35.476C274.586 36.02 273.962 36.44 273.226 36.736C272.498 37.032 271.682 37.18 270.778 37.18C269.866 37.18 269.042 37.032 268.306 36.736C267.578 36.44 266.954 36.02 266.434 35.476C265.914 34.924 265.514 34.26 265.234 33.484C264.954 32.708 264.814 31.836 264.814 30.868C264.814 29.9 264.954 29.028 265.234 28.252C265.514 27.476 265.914 26.816 266.434 26.272C266.954 25.728 267.578 25.308 268.306 25.012C269.042 24.716 269.866 24.568 270.778 24.568ZM270.778 35.164C271.882 35.164 272.702 34.796 273.238 34.06C273.782 33.316 274.054 32.256 274.054 30.88C274.054 29.504 273.782 28.444 273.238 27.7C272.702 26.948 271.882 26.572 270.778 26.572C269.658 26.572 268.826 26.948 268.282 27.7C267.738 28.444 267.466 29.504 267.466 30.88C267.466 32.256 267.738 33.316 268.282 34.06C268.826 34.796 269.658 35.164 270.778 35.164ZM286.505 26.98C286.441 27.092 286.369 27.172 286.289 27.22C286.209 27.268 286.109 27.292 285.989 27.292C285.853 27.292 285.705 27.252 285.545 27.172C285.385 27.084 285.197 26.988 284.981 26.884C284.765 26.78 284.509 26.688 284.213 26.608C283.925 26.52 283.585 26.476 283.193 26.476C282.873 26.476 282.581 26.516 282.317 26.596C282.061 26.668 281.841 26.776 281.657 26.92C281.481 27.056 281.345 27.22 281.249 27.412C281.153 27.596 281.105 27.796 281.105 28.012C281.105 28.3 281.193 28.54 281.369 28.732C281.545 28.924 281.777 29.092 282.065 29.236C282.353 29.372 282.681 29.496 283.049 29.608C283.417 29.72 283.793 29.84 284.177 29.968C284.561 30.096 284.937 30.244 285.305 30.412C285.673 30.58 286.001 30.788 286.289 31.036C286.577 31.276 286.809 31.572 286.985 31.924C287.161 32.268 287.249 32.688 287.249 33.184C287.249 33.76 287.145 34.292 286.937 34.78C286.729 35.268 286.425 35.692 286.025 36.052C285.625 36.412 285.125 36.692 284.525 36.892C283.933 37.092 283.253 37.192 282.485 37.192C282.061 37.192 281.649 37.152 281.249 37.072C280.857 37 280.481 36.9 280.121 36.772C279.769 36.636 279.437 36.476 279.125 36.292C278.821 36.108 278.549 35.908 278.309 35.692L278.909 34.708C278.981 34.588 279.069 34.496 279.173 34.432C279.285 34.36 279.421 34.324 279.581 34.324C279.749 34.324 279.913 34.38 280.073 34.492C280.241 34.596 280.433 34.712 280.649 34.84C280.873 34.968 281.141 35.088 281.453 35.2C281.765 35.304 282.153 35.356 282.617 35.356C283.001 35.356 283.333 35.312 283.613 35.224C283.893 35.128 284.125 35 284.309 34.84C284.493 34.68 284.629 34.5 284.717 34.3C284.805 34.092 284.849 33.872 284.849 33.64C284.849 33.328 284.761 33.072 284.585 32.872C284.409 32.672 284.173 32.5 283.877 32.356C283.589 32.212 283.257 32.084 282.881 31.972C282.513 31.86 282.137 31.74 281.753 31.612C281.369 31.484 280.989 31.336 280.613 31.168C280.245 31 279.913 30.788 279.617 30.532C279.329 30.268 279.097 29.952 278.921 29.584C278.745 29.208 278.657 28.752 278.657 28.216C278.657 27.728 278.753 27.264 278.945 26.824C279.145 26.384 279.433 25.996 279.809 25.66C280.193 25.324 280.661 25.06 281.213 24.868C281.773 24.668 282.417 24.568 283.145 24.568C283.969 24.568 284.717 24.7 285.389 24.964C286.061 25.228 286.625 25.588 287.081 26.044L286.505 26.98ZM295.506 28.684H301.59V30.868H295.506V28.684ZM320.072 22.672C319.984 22.816 319.892 22.924 319.796 22.996C319.7 23.06 319.58 23.092 319.436 23.092C319.284 23.092 319.112 23.028 318.92 22.9C318.736 22.772 318.504 22.632 318.224 22.48C317.952 22.32 317.628 22.176 317.252 22.048C316.876 21.912 316.428 21.844 315.908 21.844C315.428 21.844 315.004 21.904 314.636 22.024C314.276 22.144 313.972 22.312 313.724 22.528C313.476 22.744 313.288 23 313.16 23.296C313.04 23.584 312.98 23.9 312.98 24.244C312.98 24.684 313.096 25.052 313.328 25.348C313.56 25.636 313.864 25.884 314.24 26.092C314.624 26.3 315.06 26.484 315.548 26.644C316.036 26.796 316.532 26.96 317.036 27.136C317.548 27.312 318.048 27.512 318.536 27.736C319.024 27.96 319.456 28.244 319.832 28.588C320.216 28.932 320.524 29.352 320.756 29.848C320.988 30.344 321.104 30.948 321.104 31.66C321.104 32.428 320.972 33.148 320.708 33.82C320.444 34.492 320.06 35.08 319.556 35.584C319.06 36.08 318.444 36.472 317.708 36.76C316.98 37.048 316.148 37.192 315.212 37.192C314.66 37.192 314.12 37.136 313.592 37.024C313.072 36.92 312.572 36.772 312.092 36.58C311.62 36.38 311.176 36.14 310.76 35.86C310.344 35.58 309.972 35.268 309.644 34.924L310.46 33.58C310.532 33.468 310.624 33.38 310.736 33.316C310.848 33.252 310.972 33.22 311.108 33.22C311.292 33.22 311.496 33.308 311.72 33.484C311.944 33.652 312.212 33.84 312.524 34.048C312.844 34.248 313.228 34.436 313.676 34.612C314.124 34.78 314.66 34.864 315.284 34.864C316.3 34.864 317.084 34.616 317.636 34.12C318.196 33.624 318.476 32.94 318.476 32.068C318.476 31.58 318.36 31.184 318.128 30.88C317.896 30.568 317.588 30.308 317.204 30.1C316.828 29.892 316.396 29.716 315.908 29.572C315.42 29.428 314.924 29.276 314.42 29.116C313.916 28.948 313.42 28.756 312.932 28.54C312.444 28.316 312.008 28.028 311.624 27.676C311.248 27.316 310.944 26.876 310.712 26.356C310.48 25.828 310.364 25.172 310.364 24.388C310.364 23.764 310.484 23.16 310.724 22.576C310.972 21.992 311.328 21.476 311.792 21.028C312.264 20.572 312.844 20.208 313.532 19.936C314.22 19.664 315.004 19.528 315.884 19.528C316.876 19.528 317.784 19.684 318.608 19.996C319.44 20.308 320.156 20.752 320.756 21.328L320.072 22.672ZM329.514 28.528C330.138 28.528 330.686 28.448 331.158 28.288C331.638 28.128 332.034 27.904 332.346 27.616C332.666 27.32 332.906 26.964 333.066 26.548C333.226 26.132 333.306 25.668 333.306 25.156C333.306 24.652 333.226 24.2 333.066 23.8C332.914 23.4 332.682 23.06 332.37 22.78C332.058 22.5 331.662 22.288 331.182 22.144C330.71 21.992 330.154 21.916 329.514 21.916H326.946V28.528H329.514ZM329.514 19.72C330.642 19.72 331.618 19.852 332.442 20.116C333.274 20.38 333.958 20.752 334.494 21.232C335.038 21.704 335.442 22.276 335.706 22.948C335.97 23.612 336.102 24.348 336.102 25.156C336.102 25.98 335.962 26.736 335.682 27.424C335.402 28.104 334.986 28.692 334.434 29.188C333.882 29.676 333.194 30.06 332.37 30.34C331.554 30.612 330.602 30.748 329.514 30.748H326.946V37H324.138V19.72H329.514Z" fill="black"/>
<path d="M32 13C25.373 13 20 18.0372 20 24.25C20 26.6964 20.8555 28.9413 22.2775 30.7797C22.303 30.8238 22.307 30.873 22.336 30.9152L30.336 42.1652C30.707 42.6869 31.332 43 32 43C32.668 43 33.293 42.6869 33.664 42.1652L41.664 30.9152C41.6935 30.873 41.697 30.8238 41.7225 30.7797C43.1445 28.9413 44 26.6964 44 24.25C44 18.0372 38.627 13 32 13ZM32 28C29.791 28 28 26.3209 28 24.25C28 22.1791 29.791 20.5 32 20.5C34.209 20.5 36 22.1791 36 24.25C36 26.3209 34.209 28 32 28Z" fill="#231F20"/>
</svg>
