<svg width="113" height="53" viewBox="0 0 113 53" fill="none" xmlns="http://www.w3.org/2000/svg">
<path d="M21.36 48.76H11.6C8.10667 48.76 5.52 47.8533 3.84 46.04C2.18667 44.2267 1.36 41.88 1.36 39V27.76C1.36 26.2933 1.57333 25.0267 2 23.96C2.42667 22.8667 3.05333 21.96 3.88 21.24L9.08 16.88C9.90667 16.1867 10.96 15.6667 12.24 15.32C13.52 14.9733 15.0267 14.8 16.76 14.8H26.52C27.16 14.8 27.6267 14.9467 27.92 15.24C28.2133 15.5333 28.36 16 28.36 16.64V21.48C28.36 21.8267 28.3067 22.12 28.2 22.36C28.12 22.6 27.9867 22.8 27.8 22.96L22.6 27.28C22.4933 27.3867 22.32 27.48 22.08 27.56C21.8667 27.64 21.6267 27.68 21.36 27.68H16.44V34.44C16.44 35 16.6133 35.4 16.96 35.64C17.3067 35.8533 17.8133 35.96 18.48 35.96H26.52C27.16 35.96 27.6267 36.1067 27.92 36.4C28.2133 36.6933 28.36 37.16 28.36 37.8V42.56C28.36 42.9067 28.3067 43.2 28.2 43.44C28.12 43.68 27.9867 43.88 27.8 44.04L22.6 48.36C22.4933 48.4667 22.32 48.56 22.08 48.64C21.8667 48.72 21.6267 48.76 21.36 48.76ZM26.52 44C27.0267 44 27.3867 43.8933 27.6 43.68C27.84 43.44 27.96 43.0667 27.96 42.56V37.8C27.96 37.2933 27.84 36.9333 27.6 36.72C27.3867 36.48 27.0267 36.36 26.52 36.36H18.48C17.6533 36.36 17.04 36.2133 16.64 35.92C16.24 35.6 16.04 35.1067 16.04 34.44V24.92C16.04 24.2533 16.24 23.76 16.64 23.44C17.04 23.0933 17.6533 22.92 18.48 22.92H26.52C27.0267 22.92 27.3867 22.8133 27.6 22.6C27.84 22.36 27.96 21.9867 27.96 21.48V16.64C27.96 16.1333 27.84 15.7733 27.6 15.56C27.3867 15.32 27.0267 15.2 26.52 15.2H16.76C13.4267 15.2 10.9467 15.88 9.32 17.24C7.72 18.5733 6.92 20.6267 6.92 23.4V35.84C6.92 38.6133 7.72 40.6667 9.32 42C10.9467 43.3333 13.4267 44 16.76 44H26.52ZM24.32 40V40.4H17.64C15.0533 40.4 13.3333 40 12.48 39.2C11.6533 38.4 11.24 37.08 11.24 35.24V24.04C11.24 22.1467 11.6667 20.8 12.52 20C13.3733 19.2 15.08 18.8 17.64 18.8H24.32V19.2H17.64C15.2933 19.2 13.7067 19.5733 12.88 20.32C12.0533 21.04 11.64 22.28 11.64 24.04V35.24C11.64 36.9733 12.04 38.2 12.84 38.92C13.64 39.64 15.24 40 17.64 40H24.32Z" fill="#1E1267"/>
<path d="M35.9416 44.44C34.6616 44.44 33.5949 44.12 32.7416 43.48C31.9149 42.8133 31.5016 41.8933 31.5016 40.72C31.5016 39.5467 32.0216 38.5067 33.0616 37.6C34.1016 36.6667 35.3149 35.8267 36.7016 35.08C37.7416 34.4933 38.7816 33.9867 39.8216 33.56C40.8616 33.1333 41.7549 32.7733 42.5016 32.48V31.2C42.5016 29.7333 42.2216 28.64 41.6616 27.92C41.1282 27.2 40.1016 26.84 38.5816 26.84C37.8616 26.84 37.1549 26.9333 36.4616 27.12C35.7682 27.3067 35.4216 27.6533 35.4216 28.16C35.4216 28.2667 35.4349 28.3867 35.4616 28.52C35.5149 28.6533 35.5549 28.7867 35.5816 28.92C35.7149 29.2667 35.7816 29.6267 35.7816 30C35.7816 30.5067 35.5949 30.9067 35.2216 31.2C34.8749 31.4667 34.4482 31.6 33.9416 31.6C33.4616 31.6 33.0616 31.4267 32.7416 31.08C32.4216 30.7067 32.2616 30.2667 32.2616 29.76C32.2616 28.8 32.6216 28.04 33.3416 27.48C34.0882 26.8933 34.9949 26.48 36.0616 26.24C37.1282 25.9733 38.1549 25.84 39.1416 25.84C41.2749 25.84 42.8349 26.3333 43.8216 27.32C44.8082 28.3067 45.3016 29.92 45.3016 32.16V39.36C45.3016 40.5333 45.3816 41.44 45.5416 42.08C45.7282 42.72 46.1282 43.04 46.7416 43.04C47.1416 43.04 47.4882 42.8933 47.7816 42.6C48.0749 42.3067 48.2749 41.9867 48.3816 41.64L49.1016 41.92C48.8882 42.6933 48.5016 43.3067 47.9416 43.76C47.4082 44.2133 46.6616 44.44 45.7016 44.44C44.5282 44.44 43.7149 44.1067 43.2616 43.44C42.8349 42.7467 42.5949 41.84 42.5416 40.72C41.7949 41.92 40.8482 42.84 39.7016 43.48C38.5549 44.12 37.3016 44.44 35.9416 44.44ZM34.6216 40.52C34.6216 41.2667 34.8349 41.8667 35.2616 42.32C35.7149 42.7467 36.3682 42.96 37.2216 42.96C37.9949 42.96 38.7282 42.7733 39.4216 42.4C40.1416 42.0267 40.7682 41.56 41.3016 41C41.8349 40.4133 42.2349 39.7867 42.5016 39.12V33.28C41.6216 33.6533 40.7149 34.0933 39.7816 34.6C38.8749 35.08 38.0216 35.6267 37.2216 36.24C36.4482 36.8533 35.8216 37.52 35.3416 38.24C34.8616 38.9333 34.6216 39.6933 34.6216 40.52ZM50.6309 44.12V43.2L51.2709 43.12C52.0443 43.0133 52.6309 42.8933 53.0309 42.76C53.4576 42.6 53.7509 42.2667 53.9109 41.76C54.0709 41.2267 54.1509 40.36 54.1509 39.16V30.84C54.1509 29.8 54.0043 29.04 53.7109 28.56C53.4443 28.08 53.0443 27.7867 52.5109 27.68C51.9776 27.5467 51.3509 27.48 50.6309 27.48V26.56C51.7243 26.56 52.7776 26.52 53.7909 26.44C54.8043 26.36 55.8576 26.24 56.9509 26.08L56.5109 30.68H56.6709C57.2576 28.8933 57.9776 27.64 58.8309 26.92C59.6843 26.2 60.6043 25.84 61.5909 25.84C62.7109 25.84 63.4576 26.12 63.8309 26.68C64.2043 27.2133 64.3909 27.7333 64.3909 28.24C64.3909 28.8267 64.2176 29.3067 63.8709 29.68C63.5243 30.0533 63.0576 30.24 62.4709 30.24C61.9109 30.24 61.4843 30.1067 61.1909 29.84C60.8976 29.5733 60.7509 29.2667 60.7509 28.92C60.7509 28.6533 60.7776 28.4 60.8309 28.16C60.9109 27.92 60.9509 27.7333 60.9509 27.6C60.9509 27.3333 60.7643 27.2 60.3909 27.2C60.0176 27.2 59.6176 27.3733 59.1909 27.72C58.7909 28.0667 58.4443 28.5467 58.1509 29.16C57.9109 29.6667 57.6843 30.2267 57.4709 30.84C57.2576 31.4533 57.0843 32.12 56.9509 32.84V39.16C56.9509 40.36 57.0309 41.2267 57.1909 41.76C57.3509 42.2667 57.6309 42.6 58.0309 42.76C58.4576 42.8933 59.0576 43.0133 59.8309 43.12L60.4709 43.2V44.12L55.5509 44L50.6309 44.12ZM76.1844 44.44C74.4777 44.44 72.9177 44.0267 71.5044 43.2C70.1177 42.3733 69.011 41.2667 68.1844 39.88C67.3844 38.4667 66.9844 36.9067 66.9844 35.2C66.9844 33.44 67.3844 31.8533 68.1844 30.44C69.011 29.0267 70.1177 27.9067 71.5044 27.08C72.9177 26.2533 74.4777 25.84 76.1844 25.84C77.9177 25.84 79.4777 26.2533 80.8644 27.08C82.251 27.9067 83.3444 29.0267 84.1444 30.44C84.971 31.8533 85.3844 33.44 85.3844 35.2C85.3844 36.9067 84.971 38.4667 84.1444 39.88C83.3444 41.2667 82.251 42.3733 80.8644 43.2C79.4777 44.0267 77.9177 44.44 76.1844 44.44ZM76.1844 43.44C77.6244 43.44 78.7844 43.08 79.6644 42.36C80.5444 41.6133 81.1844 40.6267 81.5844 39.4C81.9844 38.1467 82.1844 36.7467 82.1844 35.2C82.1844 33.6 81.9844 32.1733 81.5844 30.92C81.1844 29.6667 80.5444 28.68 79.6644 27.96C78.7844 27.2133 77.6244 26.84 76.1844 26.84C74.7444 26.84 73.5844 27.2133 72.7044 27.96C71.8244 28.68 71.1844 29.6667 70.7844 30.92C70.3844 32.1733 70.1844 33.6 70.1844 35.2C70.1844 36.7467 70.3844 38.1467 70.7844 39.4C71.1844 40.6267 71.8244 41.6133 72.7044 42.36C73.5844 43.08 74.7444 43.44 76.1844 43.44ZM88.1766 44.12V43.2L88.8166 43.12C89.5899 43.0133 90.1766 42.8933 90.5766 42.76C91.0032 42.6 91.2966 42.2667 91.4566 41.76C91.6166 41.2267 91.6966 40.36 91.6966 39.16V19.64C91.6966 18.2533 91.4032 17.3733 90.8166 17C90.2566 16.6 89.4699 16.4 88.4566 16.4H88.1766V15.48C89.2699 15.48 90.3232 15.4533 91.3366 15.4C92.3499 15.32 93.4032 15.1867 94.4966 15V39.16C94.4966 40.36 94.5766 41.2267 94.7366 41.76C94.8966 42.2667 95.1766 42.6 95.5766 42.76C96.0032 42.8933 96.6032 43.0133 97.3766 43.12L98.0166 43.2V44.12L93.0966 44L88.1766 44.12ZM104.551 43.92C103.885 43.92 103.338 43.7067 102.911 43.28C102.511 42.8533 102.311 42.32 102.311 41.68C102.311 41.0133 102.511 40.48 102.911 40.08C103.338 39.6533 103.885 39.44 104.551 39.44C105.191 39.44 105.725 39.6533 106.151 40.08C106.578 40.48 106.791 41.0133 106.791 41.68C106.791 42.32 106.578 42.8533 106.151 43.28C105.725 43.7067 105.191 43.92 104.551 43.92Z" fill="#032A4E"/>
</svg>
